G75*
%MOIN*%
%OFA0B0*%
%FSLAX25Y25*%
%IPPOS*%
%LPD*%
%AMOC8*
5,1,8,0,0,1.08239X$1,22.5*
%
%ADD10C,0.09855*%
%ADD11R,0.04737X0.05131*%
%ADD12R,0.05131X0.04737*%
%ADD13R,0.11036X0.10249*%
%ADD14R,0.10249X0.10249*%
%ADD15R,0.05500X0.03000*%
%ADD16R,0.03000X0.05500*%
%ADD17C,0.04690*%
%ADD18R,0.06312X0.04737*%
%ADD19R,0.04737X0.06312*%
%ADD20C,0.12611*%
%ADD21C,0.09658*%
%ADD22R,0.03000X0.07500*%
%ADD23R,0.05918X0.05131*%
%ADD24R,0.02769X0.04737*%
%ADD25R,0.26200X0.13600*%
%ADD26R,0.06312X0.06312*%
%ADD27R,0.06706X0.05918*%
%ADD28R,0.05918X0.06706*%
%ADD29OC8,0.08200*%
%ADD30R,0.25209X0.22060*%
%ADD31R,0.07099X0.04737*%
%ADD32R,0.06737X0.06737*%
%ADD33C,0.06737*%
%ADD34R,0.10839X0.10839*%
%ADD35R,0.10643X0.08477*%
%ADD36R,0.08477X0.10643*%
%ADD37R,0.03400X0.08800*%
%ADD38C,0.04172*%
%ADD39C,0.03778*%
D10*
X0013347Y0018544D03*
X0387048Y0018544D03*
X0387048Y0392245D03*
X0013347Y0392245D03*
D11*
X0089201Y0244944D03*
X0095894Y0244944D03*
X0145401Y0238544D03*
X0152094Y0238544D03*
X0065094Y0195944D03*
X0058401Y0195944D03*
X0036194Y0206044D03*
X0029501Y0206044D03*
X0013347Y0201891D03*
X0013347Y0195198D03*
X0011347Y0171891D03*
X0011347Y0165198D03*
X0053247Y0079991D03*
X0053247Y0073298D03*
X0090001Y0063944D03*
X0096694Y0063944D03*
X0238301Y0092944D03*
X0244994Y0092944D03*
X0249947Y0071185D03*
X0249947Y0064492D03*
X0285001Y0063544D03*
X0291694Y0063544D03*
X0291694Y0053544D03*
X0285001Y0053544D03*
X0293647Y0034191D03*
X0293647Y0027498D03*
X0320401Y0183544D03*
X0327094Y0183544D03*
X0347301Y0253044D03*
X0353994Y0253044D03*
X0326694Y0293544D03*
X0320001Y0293544D03*
D12*
X0325847Y0230991D03*
X0325847Y0224298D03*
X0253347Y0191491D03*
X0253347Y0184798D03*
X0173347Y0189798D03*
X0173347Y0196491D03*
X0093347Y0196491D03*
X0093347Y0189798D03*
X0080494Y0200444D03*
X0073801Y0200444D03*
X0052894Y0330744D03*
X0046201Y0330744D03*
X0219047Y0286491D03*
X0219047Y0279798D03*
X0156694Y0070844D03*
X0150001Y0070844D03*
X0156401Y0050844D03*
X0163094Y0050844D03*
X0163699Y0041944D03*
X0157006Y0041944D03*
X0170347Y0037191D03*
X0170347Y0030498D03*
X0245695Y0024144D03*
X0252388Y0024144D03*
X0252669Y0037122D03*
X0245976Y0037122D03*
D13*
X0051746Y0344644D03*
X0026549Y0344644D03*
D14*
X0094547Y0327106D03*
X0111347Y0327106D03*
X0128147Y0327106D03*
X0128147Y0309783D03*
X0111347Y0309783D03*
X0094547Y0309783D03*
X0138347Y0282206D03*
X0138347Y0264883D03*
X0113347Y0177206D03*
X0113347Y0159883D03*
X0193347Y0159883D03*
X0193347Y0177206D03*
X0273347Y0177206D03*
X0273347Y0159883D03*
X0257009Y0298544D03*
X0239686Y0298544D03*
D15*
X0239056Y0077166D03*
X0239056Y0074017D03*
X0239056Y0070867D03*
X0239056Y0067718D03*
X0239056Y0064568D03*
X0239056Y0061418D03*
X0239056Y0058269D03*
X0239056Y0055119D03*
X0239056Y0051970D03*
X0239056Y0048820D03*
X0239056Y0045670D03*
X0239056Y0042521D03*
X0239056Y0039371D03*
X0239056Y0036222D03*
X0239056Y0033072D03*
X0239056Y0029922D03*
X0177639Y0029922D03*
X0177639Y0033072D03*
X0177639Y0036222D03*
X0177639Y0039371D03*
X0177639Y0042521D03*
X0177639Y0045670D03*
X0177639Y0048820D03*
X0177639Y0051970D03*
X0177639Y0055119D03*
X0177639Y0058269D03*
X0177639Y0061418D03*
X0177639Y0064568D03*
X0177639Y0067718D03*
X0177639Y0070867D03*
X0177639Y0074017D03*
X0177639Y0077166D03*
D16*
X0184725Y0084253D03*
X0187875Y0084253D03*
X0191024Y0084253D03*
X0194174Y0084253D03*
X0197324Y0084253D03*
X0200473Y0084253D03*
X0203623Y0084253D03*
X0206773Y0084253D03*
X0209922Y0084253D03*
X0213072Y0084253D03*
X0216221Y0084253D03*
X0219371Y0084253D03*
X0222521Y0084253D03*
X0225670Y0084253D03*
X0228820Y0084253D03*
X0231969Y0084253D03*
X0231969Y0022836D03*
X0228820Y0022836D03*
X0225670Y0022836D03*
X0222521Y0022836D03*
X0219371Y0022836D03*
X0216221Y0022836D03*
X0213072Y0022836D03*
X0209922Y0022836D03*
X0206773Y0022836D03*
X0203623Y0022836D03*
X0200473Y0022836D03*
X0197324Y0022836D03*
X0194174Y0022836D03*
X0191024Y0022836D03*
X0187875Y0022836D03*
X0184725Y0022836D03*
D17*
X0298324Y0027931D02*
X0300340Y0027931D01*
X0298324Y0027931D02*
X0298324Y0027977D01*
X0300340Y0027977D01*
X0300340Y0027931D01*
X0307504Y0022899D02*
X0307504Y0020883D01*
X0307458Y0020883D01*
X0307458Y0022899D01*
X0307504Y0022899D01*
X0313410Y0022899D02*
X0313410Y0020883D01*
X0313364Y0020883D01*
X0313364Y0022899D01*
X0313410Y0022899D01*
X0319315Y0022899D02*
X0319315Y0020883D01*
X0319269Y0020883D01*
X0319269Y0022899D01*
X0319315Y0022899D01*
X0325221Y0022899D02*
X0325221Y0020883D01*
X0325175Y0020883D01*
X0325175Y0022899D01*
X0325221Y0022899D01*
X0331126Y0022899D02*
X0331126Y0020883D01*
X0331080Y0020883D01*
X0331080Y0022899D01*
X0331126Y0022899D01*
X0337032Y0022899D02*
X0337032Y0020883D01*
X0336986Y0020883D01*
X0336986Y0022899D01*
X0337032Y0022899D01*
X0342937Y0022899D02*
X0342937Y0020883D01*
X0342891Y0020883D01*
X0342891Y0022899D01*
X0342937Y0022899D01*
X0300340Y0033836D02*
X0298324Y0033836D01*
X0298324Y0033882D01*
X0300340Y0033882D01*
X0300340Y0033836D01*
X0300340Y0039742D02*
X0298324Y0039742D01*
X0298324Y0039788D01*
X0300340Y0039788D01*
X0300340Y0039742D01*
X0300340Y0045647D02*
X0298324Y0045647D01*
X0298324Y0045693D01*
X0300340Y0045693D01*
X0300340Y0045647D01*
X0300340Y0051553D02*
X0298324Y0051553D01*
X0298324Y0051599D01*
X0300340Y0051599D01*
X0300340Y0051553D01*
X0300340Y0057458D02*
X0298324Y0057458D01*
X0298324Y0057504D01*
X0300340Y0057504D01*
X0300340Y0057458D01*
X0300340Y0063364D02*
X0298324Y0063364D01*
X0298324Y0063410D01*
X0300340Y0063410D01*
X0300340Y0063364D01*
X0300340Y0069269D02*
X0298324Y0069269D01*
X0298324Y0069315D01*
X0300340Y0069315D01*
X0300340Y0069269D01*
X0307458Y0074190D02*
X0307458Y0076206D01*
X0307504Y0076206D01*
X0307504Y0074190D01*
X0307458Y0074190D01*
X0313364Y0074190D02*
X0313364Y0076206D01*
X0313410Y0076206D01*
X0313410Y0074190D01*
X0313364Y0074190D01*
X0319269Y0074190D02*
X0319269Y0076206D01*
X0319315Y0076206D01*
X0319315Y0074190D01*
X0319269Y0074190D01*
X0325175Y0074190D02*
X0325175Y0076206D01*
X0325221Y0076206D01*
X0325221Y0074190D01*
X0325175Y0074190D01*
X0331080Y0074190D02*
X0331080Y0076206D01*
X0331126Y0076206D01*
X0331126Y0074190D01*
X0331080Y0074190D01*
X0336986Y0074190D02*
X0336986Y0076206D01*
X0337032Y0076206D01*
X0337032Y0074190D01*
X0336986Y0074190D01*
X0342891Y0074190D02*
X0342891Y0076206D01*
X0342937Y0076206D01*
X0342937Y0074190D01*
X0342891Y0074190D01*
D18*
X0287678Y0037285D03*
X0287678Y0029804D03*
X0279017Y0033544D03*
X0264017Y0184804D03*
X0264017Y0192285D03*
X0272678Y0188544D03*
X0192678Y0193544D03*
X0184017Y0189804D03*
X0184017Y0197285D03*
X0112678Y0193544D03*
X0104017Y0189804D03*
X0104017Y0197285D03*
X0229017Y0279804D03*
X0229017Y0287285D03*
X0237678Y0283544D03*
D19*
X0152087Y0249214D03*
X0144607Y0249214D03*
X0148347Y0257875D03*
X0094887Y0252914D03*
X0087407Y0252914D03*
X0091147Y0261575D03*
D20*
X0078347Y0343544D03*
X0188347Y0343544D03*
X0253347Y0343544D03*
X0363347Y0343544D03*
D21*
X0343879Y0348544D03*
X0334824Y0348544D03*
X0323210Y0348544D03*
X0314154Y0348544D03*
X0302540Y0348544D03*
X0293485Y0348544D03*
X0281871Y0348544D03*
X0272816Y0348544D03*
X0273898Y0335946D03*
X0287678Y0335946D03*
X0301458Y0335946D03*
X0315237Y0335946D03*
X0329017Y0335946D03*
X0342796Y0335946D03*
X0168879Y0348544D03*
X0159824Y0348544D03*
X0148210Y0348544D03*
X0139154Y0348544D03*
X0127540Y0348544D03*
X0118485Y0348544D03*
X0106871Y0348544D03*
X0097816Y0348544D03*
X0098898Y0335946D03*
X0112678Y0335946D03*
X0126458Y0335946D03*
X0140237Y0335946D03*
X0154017Y0335946D03*
X0167796Y0335946D03*
D22*
X0035847Y0199744D03*
X0030847Y0199744D03*
X0025847Y0199744D03*
X0020847Y0199744D03*
X0020847Y0157344D03*
X0025847Y0157344D03*
X0030847Y0157344D03*
X0035847Y0157344D03*
D23*
X0155220Y0064888D03*
X0155220Y0057801D03*
X0164275Y0057801D03*
X0164275Y0064888D03*
D24*
X0165847Y0115788D03*
X0170847Y0115788D03*
X0175847Y0115788D03*
X0180847Y0115788D03*
X0185847Y0115788D03*
X0190847Y0115788D03*
X0195847Y0115788D03*
X0200847Y0115788D03*
X0200847Y0141300D03*
X0195847Y0141300D03*
X0190847Y0141300D03*
X0185847Y0141300D03*
X0180847Y0141300D03*
X0175847Y0141300D03*
X0170847Y0141300D03*
X0165847Y0141300D03*
X0155847Y0141300D03*
X0150847Y0141300D03*
X0145847Y0141300D03*
X0140847Y0141300D03*
X0135847Y0141300D03*
X0130847Y0141300D03*
X0125847Y0141300D03*
X0120847Y0141300D03*
X0120847Y0115788D03*
X0125847Y0115788D03*
X0130847Y0115788D03*
X0135847Y0115788D03*
X0140847Y0115788D03*
X0145847Y0115788D03*
X0150847Y0115788D03*
X0155847Y0115788D03*
X0250847Y0111300D03*
X0255847Y0111300D03*
X0260847Y0111300D03*
X0265847Y0111300D03*
X0270847Y0111300D03*
X0275847Y0111300D03*
X0280847Y0111300D03*
X0285847Y0111300D03*
X0285847Y0085788D03*
X0280847Y0085788D03*
X0275847Y0085788D03*
X0270847Y0085788D03*
X0265847Y0085788D03*
X0260847Y0085788D03*
X0255847Y0085788D03*
X0250847Y0085788D03*
D25*
X0068347Y0228544D03*
X0023347Y0228544D03*
X0023347Y0323544D03*
X0068347Y0323544D03*
D26*
X0139947Y0325925D03*
X0139947Y0310964D03*
D27*
X0124747Y0199085D03*
X0124747Y0191604D03*
X0130847Y0184885D03*
X0130847Y0177404D03*
X0136847Y0170685D03*
X0136847Y0163204D03*
X0145047Y0160485D03*
X0145047Y0153004D03*
X0113347Y0142785D03*
X0113347Y0135304D03*
X0081347Y0141104D03*
X0081347Y0148585D03*
X0215047Y0135785D03*
X0215047Y0128304D03*
D28*
G36*
X0226270Y0140363D02*
X0230455Y0136178D01*
X0225714Y0131437D01*
X0221529Y0135622D01*
X0226270Y0140363D01*
G37*
G36*
X0220981Y0145652D02*
X0225166Y0141467D01*
X0220425Y0136726D01*
X0216240Y0140911D01*
X0220981Y0145652D01*
G37*
X0222087Y0113544D03*
X0214607Y0113544D03*
X0205887Y0106544D03*
X0198407Y0106544D03*
X0188287Y0106544D03*
X0180807Y0106544D03*
X0172487Y0106544D03*
X0165007Y0106544D03*
D29*
X0138347Y0043544D03*
X0138347Y0033544D03*
X0128347Y0033544D03*
X0128347Y0043544D03*
X0118347Y0043544D03*
X0118347Y0033544D03*
X0108347Y0033544D03*
X0108347Y0043544D03*
X0098347Y0043544D03*
X0098347Y0033544D03*
D30*
X0375890Y0273544D03*
D31*
X0347150Y0264568D03*
X0347150Y0282521D03*
D32*
X0068347Y0118544D03*
X0033347Y0118544D03*
D33*
X0033347Y0108544D03*
X0033347Y0088544D03*
X0033347Y0068544D03*
X0068347Y0068544D03*
X0068347Y0088544D03*
X0068347Y0108544D03*
D34*
X0210128Y0321853D03*
X0210128Y0336262D03*
X0210128Y0353861D03*
X0210128Y0368270D03*
X0295367Y0303936D03*
X0295367Y0289526D03*
X0295367Y0271928D03*
X0295367Y0257518D03*
X0363228Y0238870D03*
X0363228Y0224461D03*
X0363228Y0206862D03*
X0363228Y0192453D03*
X0381567Y0174636D03*
X0381567Y0160226D03*
X0381567Y0142628D03*
X0381567Y0128218D03*
D35*
X0043347Y0084548D03*
X0043347Y0072540D03*
D36*
X0072243Y0209144D03*
X0084251Y0209144D03*
D37*
X0090847Y0140644D03*
X0095847Y0140644D03*
X0100847Y0140644D03*
X0105847Y0140644D03*
X0105847Y0116444D03*
X0100847Y0116444D03*
X0095847Y0116444D03*
X0090847Y0116444D03*
X0305847Y0110644D03*
X0310847Y0110644D03*
X0315847Y0110644D03*
X0320847Y0110644D03*
X0320847Y0086444D03*
X0315847Y0086444D03*
X0310847Y0086444D03*
X0305847Y0086444D03*
D38*
X0310847Y0082044D03*
X0320847Y0082044D03*
X0319347Y0108544D03*
X0303347Y0128544D03*
X0298347Y0128544D03*
X0303347Y0133544D03*
X0333347Y0133544D03*
X0338347Y0133544D03*
X0343347Y0133544D03*
X0343347Y0138544D03*
X0338347Y0138544D03*
X0343347Y0143544D03*
X0348347Y0143544D03*
X0348347Y0138544D03*
X0348347Y0148544D03*
X0273347Y0238544D03*
X0268347Y0243544D03*
X0273347Y0248544D03*
X0278347Y0243544D03*
X0278347Y0253544D03*
X0273347Y0258544D03*
X0268347Y0253544D03*
X0228347Y0198544D03*
X0228347Y0193544D03*
X0223347Y0193544D03*
X0223347Y0198544D03*
X0208347Y0198544D03*
X0208347Y0193544D03*
X0233347Y0158544D03*
X0238347Y0158544D03*
X0238347Y0153544D03*
X0238347Y0133544D03*
X0243347Y0128544D03*
X0200347Y0155944D03*
X0197847Y0152344D03*
X0168347Y0129444D03*
X0058347Y0148544D03*
X0058347Y0153544D03*
X0053347Y0153544D03*
X0033747Y0169744D03*
X0009647Y0153244D03*
X0028347Y0138544D03*
X0023347Y0128544D03*
X0018347Y0118544D03*
X0206747Y0018744D03*
X0212847Y0018644D03*
X0193347Y0308544D03*
X0193347Y0313544D03*
X0193347Y0318544D03*
X0188347Y0313544D03*
X0188347Y0308544D03*
X0183347Y0308544D03*
X0183347Y0358544D03*
X0188347Y0358544D03*
X0188347Y0363544D03*
X0193347Y0363544D03*
X0193347Y0358544D03*
X0198347Y0358544D03*
X0198347Y0363544D03*
D39*
X0197847Y0373244D03*
X0201047Y0376044D03*
X0203447Y0373044D03*
X0207447Y0376044D03*
X0204047Y0378544D03*
X0197947Y0378544D03*
X0194447Y0375944D03*
X0238347Y0333544D03*
X0238347Y0328544D03*
X0243347Y0328544D03*
X0248347Y0328544D03*
X0253347Y0328544D03*
X0258347Y0328544D03*
X0248347Y0323544D03*
X0248347Y0318544D03*
X0248347Y0313544D03*
X0243347Y0318544D03*
X0243347Y0323544D03*
X0238347Y0323544D03*
X0243347Y0333544D03*
X0253347Y0318544D03*
X0256047Y0304344D03*
X0255947Y0293244D03*
X0241047Y0293344D03*
X0241047Y0304044D03*
X0206747Y0308144D03*
X0204547Y0304444D03*
X0202347Y0308244D03*
X0202447Y0312944D03*
X0206847Y0312844D03*
X0202547Y0317744D03*
X0243347Y0363544D03*
X0248347Y0363544D03*
X0248347Y0358544D03*
X0253347Y0358544D03*
X0258347Y0358544D03*
X0258347Y0363544D03*
X0253347Y0363544D03*
X0263347Y0363544D03*
X0263347Y0358544D03*
X0268347Y0358544D03*
X0273347Y0358544D03*
X0278347Y0358544D03*
X0278347Y0363544D03*
X0273347Y0363544D03*
X0268347Y0363544D03*
X0283347Y0358544D03*
X0284947Y0324144D03*
X0287047Y0320644D03*
X0289047Y0324144D03*
X0291147Y0320644D03*
X0293247Y0324144D03*
X0295347Y0320644D03*
X0297747Y0317044D03*
X0297747Y0312644D03*
X0292947Y0312544D03*
X0292947Y0316944D03*
X0307047Y0306244D03*
X0305147Y0302844D03*
X0305047Y0299044D03*
X0309047Y0302844D03*
X0310947Y0306244D03*
X0314847Y0306244D03*
X0312947Y0302844D03*
X0316747Y0302844D03*
X0314847Y0299044D03*
X0324947Y0297344D03*
X0326447Y0290244D03*
X0359447Y0297944D03*
X0359447Y0301744D03*
X0363347Y0301744D03*
X0363347Y0297944D03*
X0367247Y0297944D03*
X0367247Y0301744D03*
X0367247Y0305644D03*
X0363347Y0305644D03*
X0359447Y0305644D03*
X0359447Y0309644D03*
X0363347Y0309644D03*
X0367247Y0309644D03*
X0367247Y0313544D03*
X0363347Y0313544D03*
X0359447Y0313544D03*
X0393347Y0308544D03*
X0393347Y0318544D03*
X0393347Y0328544D03*
X0393347Y0338544D03*
X0393347Y0348544D03*
X0393347Y0358544D03*
X0361447Y0359744D03*
X0361447Y0363544D03*
X0361447Y0367444D03*
X0357347Y0367444D03*
X0357347Y0363544D03*
X0357347Y0359744D03*
X0353347Y0359744D03*
X0353347Y0363544D03*
X0349447Y0363544D03*
X0349447Y0359744D03*
X0345547Y0359744D03*
X0345547Y0363644D03*
X0345547Y0367444D03*
X0349447Y0367444D03*
X0353347Y0367444D03*
X0393347Y0298544D03*
X0393347Y0288544D03*
X0393347Y0278544D03*
X0393347Y0268544D03*
X0393347Y0258544D03*
X0393347Y0248544D03*
X0393347Y0238544D03*
X0393347Y0228544D03*
X0393347Y0218544D03*
X0393347Y0208544D03*
X0393347Y0198544D03*
X0393347Y0188544D03*
X0329747Y0186544D03*
X0324647Y0186544D03*
X0315947Y0190544D03*
X0310747Y0190444D03*
X0305647Y0190544D03*
X0305647Y0195844D03*
X0305547Y0200644D03*
X0305547Y0205644D03*
X0305547Y0210344D03*
X0310747Y0210344D03*
X0310747Y0205644D03*
X0310747Y0200644D03*
X0310747Y0195844D03*
X0315947Y0195844D03*
X0315847Y0200644D03*
X0315847Y0205644D03*
X0315847Y0210244D03*
X0323347Y0233544D03*
X0328347Y0233544D03*
X0298247Y0250444D03*
X0296447Y0247244D03*
X0294547Y0250444D03*
X0292547Y0247344D03*
X0290747Y0250444D03*
X0294447Y0243944D03*
X0268347Y0223544D03*
X0263347Y0223544D03*
X0263347Y0228544D03*
X0258347Y0228544D03*
X0258347Y0223544D03*
X0253347Y0223544D03*
X0248347Y0223544D03*
X0243347Y0223544D03*
X0238347Y0223544D03*
X0238347Y0228544D03*
X0243347Y0228544D03*
X0248347Y0228544D03*
X0253347Y0228544D03*
X0233347Y0228544D03*
X0233347Y0223544D03*
X0213347Y0253544D03*
X0208347Y0253544D03*
X0203347Y0253544D03*
X0198347Y0253544D03*
X0198347Y0258544D03*
X0193347Y0258544D03*
X0203347Y0258544D03*
X0208347Y0258544D03*
X0213347Y0258544D03*
X0148347Y0308544D03*
X0148347Y0313544D03*
X0148347Y0318544D03*
X0148347Y0323544D03*
X0148347Y0328544D03*
X0128347Y0358544D03*
X0123347Y0358544D03*
X0123347Y0363544D03*
X0128347Y0363544D03*
X0128347Y0368544D03*
X0123347Y0368544D03*
X0118347Y0368544D03*
X0118347Y0363544D03*
X0118347Y0358544D03*
X0113347Y0358544D03*
X0108347Y0358544D03*
X0103347Y0358544D03*
X0103347Y0363544D03*
X0108347Y0363544D03*
X0113347Y0363544D03*
X0113347Y0368544D03*
X0108347Y0368544D03*
X0103347Y0368544D03*
X0098347Y0368544D03*
X0098347Y0363544D03*
X0098347Y0358544D03*
X0078347Y0328544D03*
X0078347Y0323544D03*
X0078347Y0318544D03*
X0083347Y0323544D03*
X0073347Y0323544D03*
X0073347Y0318544D03*
X0068347Y0318544D03*
X0063347Y0318544D03*
X0058347Y0318544D03*
X0058347Y0323544D03*
X0063347Y0323544D03*
X0068347Y0323544D03*
X0068347Y0328544D03*
X0063347Y0328544D03*
X0058347Y0328544D03*
X0058347Y0333544D03*
X0063347Y0333544D03*
X0063347Y0338544D03*
X0058347Y0338544D03*
X0058347Y0343544D03*
X0063347Y0343544D03*
X0073347Y0328544D03*
X0098347Y0298544D03*
X0108347Y0298544D03*
X0118347Y0298544D03*
X0133047Y0280844D03*
X0143647Y0280844D03*
X0143647Y0266144D03*
X0132847Y0265944D03*
X0128347Y0258544D03*
X0128347Y0253544D03*
X0128347Y0248544D03*
X0123347Y0248544D03*
X0123347Y0253544D03*
X0123347Y0258544D03*
X0133347Y0253544D03*
X0133347Y0248544D03*
X0138347Y0248544D03*
X0138347Y0253544D03*
X0083947Y0252844D03*
X0083947Y0248644D03*
X0083947Y0244344D03*
X0073347Y0248544D03*
X0068347Y0248544D03*
X0063347Y0248544D03*
X0063347Y0253544D03*
X0058347Y0253544D03*
X0068347Y0253544D03*
X0073347Y0253544D03*
X0074747Y0258844D03*
X0074747Y0264344D03*
X0063347Y0288544D03*
X0058347Y0288544D03*
X0058347Y0293544D03*
X0063347Y0293544D03*
X0053347Y0293544D03*
X0053347Y0288544D03*
X0013347Y0223544D03*
X0008347Y0223544D03*
X0008347Y0218544D03*
X0008347Y0213544D03*
X0008347Y0208544D03*
X0008347Y0203544D03*
X0013347Y0208544D03*
X0018347Y0208544D03*
X0018347Y0213544D03*
X0013347Y0213544D03*
X0013347Y0218544D03*
X0018347Y0218544D03*
X0023347Y0213544D03*
X0025947Y0205644D03*
X0020847Y0202344D03*
X0008347Y0198544D03*
X0008347Y0193544D03*
X0008347Y0188544D03*
X0038347Y0203544D03*
X0043147Y0200044D03*
X0058347Y0198944D03*
X0068347Y0198544D03*
X0068347Y0193544D03*
X0068347Y0188544D03*
X0068347Y0183544D03*
X0078347Y0168544D03*
X0078347Y0163544D03*
X0078347Y0158544D03*
X0082547Y0151644D03*
X0088347Y0163544D03*
X0098547Y0150244D03*
X0108247Y0160744D03*
X0118447Y0160944D03*
X0118347Y0176144D03*
X0108247Y0176144D03*
X0088347Y0183544D03*
X0118347Y0198544D03*
X0158347Y0188544D03*
X0173347Y0183544D03*
X0188147Y0175944D03*
X0198647Y0176044D03*
X0198647Y0160844D03*
X0188147Y0160844D03*
X0183347Y0158544D03*
X0186747Y0136844D03*
X0189447Y0134344D03*
X0161947Y0130644D03*
X0158347Y0138544D03*
X0158347Y0143544D03*
X0158347Y0148544D03*
X0156647Y0158144D03*
X0140847Y0112144D03*
X0128347Y0108544D03*
X0120847Y0110344D03*
X0100547Y0113344D03*
X0099047Y0105544D03*
X0127047Y0084344D03*
X0114247Y0076044D03*
X0100247Y0066044D03*
X0103147Y0062544D03*
X0103147Y0059444D03*
X0118347Y0056844D03*
X0136347Y0061144D03*
X0163147Y0035844D03*
X0166247Y0033244D03*
X0173347Y0038544D03*
X0198347Y0053544D03*
X0202347Y0059844D03*
X0231347Y0058244D03*
X0234847Y0055144D03*
X0231347Y0051944D03*
X0234947Y0061444D03*
X0246247Y0073444D03*
X0249947Y0074844D03*
X0253347Y0073644D03*
X0255847Y0083444D03*
X0265847Y0083444D03*
X0275847Y0083544D03*
X0285847Y0083744D03*
X0273347Y0063544D03*
X0268347Y0063544D03*
X0258347Y0043544D03*
X0248347Y0043544D03*
X0245547Y0048544D03*
X0241947Y0028744D03*
X0231947Y0028044D03*
X0225647Y0026544D03*
X0219347Y0026844D03*
X0216247Y0031444D03*
X0235147Y0086044D03*
X0228847Y0088744D03*
X0223447Y0090044D03*
X0254347Y0107344D03*
X0264247Y0107344D03*
X0258347Y0153544D03*
X0268147Y0160944D03*
X0268347Y0168544D03*
X0263347Y0168544D03*
X0268347Y0175944D03*
X0273347Y0168544D03*
X0278347Y0168544D03*
X0283347Y0168544D03*
X0278547Y0175844D03*
X0278547Y0161044D03*
X0250747Y0176244D03*
X0233347Y0193544D03*
X0278347Y0198544D03*
X0283347Y0198544D03*
X0283347Y0203544D03*
X0283347Y0208544D03*
X0283347Y0213544D03*
X0278347Y0213544D03*
X0278347Y0208544D03*
X0278347Y0203544D03*
X0305647Y0185644D03*
X0305647Y0181144D03*
X0314647Y0181144D03*
X0314647Y0185644D03*
X0308347Y0058544D03*
X0304447Y0045544D03*
X0309547Y0038544D03*
X0279647Y0036544D03*
X0275847Y0035844D03*
X0275747Y0031644D03*
X0279547Y0030944D03*
X0158747Y0102344D03*
X0123747Y0026444D03*
X0063247Y0066544D03*
X0059347Y0066544D03*
X0056147Y0068544D03*
X0059347Y0070544D03*
X0063247Y0070444D03*
X0063347Y0084644D03*
X0063347Y0088544D03*
X0063347Y0092544D03*
X0059247Y0092544D03*
X0059247Y0088444D03*
X0059247Y0084644D03*
X0055047Y0088544D03*
X0028747Y0070844D03*
X0025147Y0070944D03*
X0025147Y0066344D03*
X0028747Y0066344D03*
X0020947Y0068444D03*
X0023947Y0084644D03*
X0023947Y0088544D03*
X0024047Y0092544D03*
X0028347Y0092544D03*
X0028347Y0088544D03*
X0028347Y0084644D03*
X0019847Y0088544D03*
X0058347Y0038544D03*
X0025847Y0151644D03*
X0030847Y0153544D03*
M02*
