G75*
%MOIN*%
%OFA0B0*%
%FSLAX25Y25*%
%IPPOS*%
%LPD*%
%AMOC8*
5,1,8,0,0,1.08239X$1,22.5*
%
%ADD10C,0.09855*%
%ADD11R,0.10249X0.10249*%
%ADD12R,0.15761X0.11824*%
%ADD13R,0.19698X0.10643*%
%ADD14R,0.10643X0.19698*%
%ADD15R,0.17335X0.08674*%
%ADD16R,0.08674X0.17335*%
%ADD17R,0.05524X0.05524*%
%ADD18R,0.04737X0.05131*%
%ADD19C,0.12611*%
%ADD20C,0.09658*%
%ADD21R,0.06312X0.06312*%
%ADD22R,0.25209X0.22060*%
%ADD23R,0.07099X0.04737*%
%ADD24R,0.22060X0.25209*%
%ADD25R,0.04737X0.07099*%
%ADD26OC8,0.08200*%
%ADD27R,0.06706X0.05918*%
%ADD28R,0.05918X0.06706*%
%ADD29R,0.09461X0.03162*%
%ADD30R,0.06737X0.06737*%
%ADD31C,0.06737*%
%ADD32R,0.10839X0.10839*%
%ADD33R,0.07099X0.07898*%
%ADD34R,0.09461X0.02769*%
%ADD35R,0.05131X0.04737*%
%ADD36C,0.04172*%
%ADD37C,0.03778*%
D10*
X0013347Y0018544D03*
X0387048Y0018544D03*
X0387048Y0392245D03*
X0013347Y0392245D03*
D11*
X0055147Y0282106D03*
X0055147Y0264783D03*
D12*
X0060447Y0306377D03*
X0060447Y0335511D03*
D13*
X0116119Y0273544D03*
X0190119Y0273544D03*
X0220395Y0273544D03*
X0273544Y0273544D03*
X0221576Y0168544D03*
X0141576Y0168544D03*
X0061576Y0168544D03*
D14*
X0088347Y0143348D03*
X0088347Y0196497D03*
X0089347Y0245592D03*
X0089347Y0298741D03*
X0163347Y0298741D03*
X0163347Y0245592D03*
X0168347Y0196497D03*
X0168347Y0143348D03*
X0248347Y0143348D03*
X0248347Y0196497D03*
X0248347Y0246773D03*
D15*
X0271576Y0180355D03*
X0271576Y0156733D03*
X0191576Y0156733D03*
X0191576Y0180355D03*
X0111576Y0180355D03*
X0111576Y0156733D03*
X0140119Y0261733D03*
X0140119Y0285355D03*
X0066119Y0285355D03*
X0066119Y0261733D03*
D16*
X0236536Y0296773D03*
X0260158Y0296773D03*
D17*
X0055981Y0195944D03*
X0047713Y0195944D03*
X0047213Y0038544D03*
X0055481Y0038544D03*
X0309213Y0048544D03*
X0317481Y0048544D03*
D18*
X0318894Y0038544D03*
X0312201Y0038544D03*
X0182794Y0076044D03*
X0176101Y0076044D03*
X0156594Y0102644D03*
X0149901Y0102644D03*
X0141694Y0108544D03*
X0135001Y0108544D03*
X0126694Y0098544D03*
X0120001Y0098544D03*
X0116794Y0107944D03*
X0110101Y0107944D03*
X0105794Y0102244D03*
X0099101Y0102244D03*
X0103101Y0116344D03*
X0109794Y0116344D03*
X0110101Y0084844D03*
X0116794Y0084844D03*
X0096694Y0072344D03*
X0090001Y0072344D03*
X0090001Y0063944D03*
X0096694Y0063944D03*
X0041694Y0038544D03*
X0035001Y0038544D03*
G36*
X0031869Y0207698D02*
X0028520Y0204349D01*
X0024893Y0207976D01*
X0028242Y0211325D01*
X0031869Y0207698D01*
G37*
G36*
X0036602Y0212430D02*
X0033253Y0209081D01*
X0029626Y0212708D01*
X0032975Y0216057D01*
X0036602Y0212430D01*
G37*
D19*
X0078347Y0343544D03*
X0188347Y0343544D03*
X0253347Y0343544D03*
X0363347Y0343544D03*
D20*
X0343879Y0348544D03*
X0334824Y0348544D03*
X0323210Y0348544D03*
X0314154Y0348544D03*
X0302540Y0348544D03*
X0293485Y0348544D03*
X0281871Y0348544D03*
X0272816Y0348544D03*
X0273898Y0335946D03*
X0287678Y0335946D03*
X0301458Y0335946D03*
X0315237Y0335946D03*
X0329017Y0335946D03*
X0342796Y0335946D03*
X0168879Y0348544D03*
X0159824Y0348544D03*
X0148210Y0348544D03*
X0139154Y0348544D03*
X0127540Y0348544D03*
X0118485Y0348544D03*
X0106871Y0348544D03*
X0097816Y0348544D03*
X0098898Y0335946D03*
X0112678Y0335946D03*
X0126458Y0335946D03*
X0140237Y0335946D03*
X0154017Y0335946D03*
X0167796Y0335946D03*
D21*
X0128147Y0323825D03*
X0128147Y0308864D03*
X0111547Y0308764D03*
X0098947Y0308584D03*
X0098947Y0323544D03*
X0111547Y0323725D03*
D22*
X0335190Y0213644D03*
D23*
X0306450Y0204668D03*
X0306450Y0222621D03*
D24*
X0318347Y0268702D03*
X0318347Y0158702D03*
D25*
X0309371Y0187442D03*
X0327324Y0187442D03*
X0327324Y0297442D03*
X0309371Y0297442D03*
D26*
X0138347Y0043544D03*
X0138347Y0033544D03*
X0128347Y0033544D03*
X0128347Y0043544D03*
X0118347Y0043544D03*
X0118347Y0033544D03*
X0108347Y0033544D03*
X0108347Y0043544D03*
X0098347Y0043544D03*
X0098347Y0033544D03*
D27*
X0275847Y0072504D03*
X0275847Y0079985D03*
X0285847Y0079985D03*
X0285847Y0072504D03*
D28*
X0265887Y0078044D03*
X0258407Y0078044D03*
X0255887Y0086644D03*
X0248407Y0086644D03*
X0259607Y0023544D03*
X0267087Y0023544D03*
X0252087Y0018544D03*
X0244607Y0018544D03*
D29*
X0128584Y0061044D03*
X0128584Y0066044D03*
X0128584Y0071044D03*
X0128584Y0076044D03*
X0108111Y0076044D03*
X0108111Y0071044D03*
X0108111Y0066044D03*
X0108111Y0061044D03*
D30*
X0068347Y0118544D03*
X0033347Y0118544D03*
D31*
X0033347Y0108544D03*
X0033347Y0088544D03*
X0033347Y0068544D03*
X0068347Y0068544D03*
X0068347Y0088544D03*
X0068347Y0108544D03*
D32*
X0210128Y0321853D03*
X0210128Y0336262D03*
X0210128Y0353861D03*
X0210128Y0368270D03*
X0295367Y0303936D03*
X0295367Y0289526D03*
X0295367Y0271928D03*
X0295367Y0257518D03*
X0363228Y0238870D03*
X0363228Y0224461D03*
X0363228Y0206862D03*
X0363228Y0192453D03*
X0381567Y0174636D03*
X0381567Y0160226D03*
X0381567Y0142628D03*
X0381567Y0128218D03*
D33*
G36*
X0275656Y0040597D02*
X0270637Y0035578D01*
X0265054Y0041161D01*
X0270073Y0046180D01*
X0275656Y0040597D01*
G37*
G36*
X0267738Y0032679D02*
X0262719Y0027660D01*
X0257136Y0033243D01*
X0262155Y0038262D01*
X0267738Y0032679D01*
G37*
D34*
X0165765Y0061044D03*
X0165765Y0066044D03*
X0165765Y0071044D03*
X0165765Y0076044D03*
X0140930Y0076044D03*
X0140930Y0071084D03*
X0140930Y0066084D03*
X0140930Y0061084D03*
D35*
X0135994Y0081144D03*
X0129301Y0081144D03*
D36*
X0168347Y0129444D03*
X0197847Y0152344D03*
X0200347Y0155944D03*
X0233347Y0158544D03*
X0238347Y0158544D03*
X0238347Y0153544D03*
X0238347Y0133544D03*
X0243347Y0128544D03*
X0298347Y0128544D03*
X0303347Y0128544D03*
X0303347Y0133544D03*
X0319347Y0108544D03*
X0320847Y0082044D03*
X0310847Y0082044D03*
X0333347Y0133544D03*
X0338347Y0133544D03*
X0343347Y0133544D03*
X0343347Y0138544D03*
X0338347Y0138544D03*
X0343347Y0143544D03*
X0348347Y0143544D03*
X0348347Y0138544D03*
X0348347Y0148544D03*
X0273347Y0238544D03*
X0268347Y0243544D03*
X0273347Y0248544D03*
X0278347Y0243544D03*
X0278347Y0253544D03*
X0273347Y0258544D03*
X0268347Y0253544D03*
X0228347Y0198544D03*
X0228347Y0193544D03*
X0223347Y0193544D03*
X0223347Y0198544D03*
X0208347Y0198544D03*
X0208347Y0193544D03*
X0193347Y0308544D03*
X0193347Y0313544D03*
X0193347Y0318544D03*
X0188347Y0313544D03*
X0188347Y0308544D03*
X0183347Y0308544D03*
X0183347Y0358544D03*
X0188347Y0358544D03*
X0188347Y0363544D03*
X0193347Y0363544D03*
X0193347Y0358544D03*
X0198347Y0358544D03*
X0198347Y0363544D03*
X0033747Y0169744D03*
X0053347Y0153544D03*
X0058347Y0153544D03*
X0058347Y0148544D03*
X0028347Y0138544D03*
X0023347Y0128544D03*
X0018347Y0118544D03*
X0009647Y0153244D03*
X0206747Y0018744D03*
X0212847Y0018644D03*
D37*
X0219347Y0026844D03*
X0216247Y0031444D03*
X0225647Y0026544D03*
X0231947Y0028044D03*
X0241947Y0028744D03*
X0248347Y0043544D03*
X0245547Y0048544D03*
X0234847Y0055144D03*
X0231347Y0058244D03*
X0234947Y0061444D03*
X0231347Y0051944D03*
X0246247Y0073444D03*
X0249947Y0074844D03*
X0253347Y0073644D03*
X0255847Y0083444D03*
X0265847Y0083444D03*
X0275847Y0083544D03*
X0285847Y0083744D03*
X0273347Y0063544D03*
X0268347Y0063544D03*
X0258347Y0043544D03*
X0275847Y0035844D03*
X0279647Y0036544D03*
X0279547Y0030944D03*
X0275747Y0031644D03*
X0304447Y0045544D03*
X0309547Y0038544D03*
X0308347Y0058544D03*
X0264247Y0107344D03*
X0254347Y0107344D03*
X0235147Y0086044D03*
X0228847Y0088744D03*
X0223447Y0090044D03*
X0202347Y0059844D03*
X0198347Y0053544D03*
X0173347Y0038544D03*
X0166247Y0033244D03*
X0163147Y0035844D03*
X0136347Y0061144D03*
X0118347Y0056844D03*
X0103147Y0059444D03*
X0103147Y0062544D03*
X0100247Y0066044D03*
X0114247Y0076044D03*
X0127047Y0084344D03*
X0128347Y0108544D03*
X0120847Y0110344D03*
X0140847Y0112144D03*
X0158747Y0102344D03*
X0161947Y0130644D03*
X0158347Y0138544D03*
X0158347Y0143544D03*
X0158347Y0148544D03*
X0156647Y0158144D03*
X0183347Y0158544D03*
X0188147Y0160844D03*
X0198647Y0160844D03*
X0198647Y0176044D03*
X0188147Y0175944D03*
X0173347Y0183544D03*
X0158347Y0188544D03*
X0118347Y0198544D03*
X0118347Y0176144D03*
X0108247Y0176144D03*
X0108247Y0160744D03*
X0118447Y0160944D03*
X0098547Y0150244D03*
X0088347Y0163544D03*
X0078347Y0163544D03*
X0078347Y0158544D03*
X0082547Y0151644D03*
X0078347Y0168544D03*
X0068347Y0183544D03*
X0068347Y0188544D03*
X0068347Y0193544D03*
X0068347Y0198544D03*
X0058347Y0198944D03*
X0043147Y0200044D03*
X0038347Y0203544D03*
X0025947Y0205644D03*
X0020847Y0202344D03*
X0018347Y0208544D03*
X0013347Y0208544D03*
X0008347Y0208544D03*
X0008347Y0203544D03*
X0008347Y0198544D03*
X0008347Y0193544D03*
X0008347Y0188544D03*
X0008347Y0213544D03*
X0013347Y0213544D03*
X0018347Y0213544D03*
X0023347Y0213544D03*
X0018347Y0218544D03*
X0013347Y0218544D03*
X0008347Y0218544D03*
X0008347Y0223544D03*
X0013347Y0223544D03*
X0058347Y0253544D03*
X0063347Y0253544D03*
X0063347Y0248544D03*
X0068347Y0248544D03*
X0073347Y0248544D03*
X0073347Y0253544D03*
X0068347Y0253544D03*
X0074747Y0258844D03*
X0074747Y0264344D03*
X0083947Y0252844D03*
X0083947Y0248644D03*
X0083947Y0244344D03*
X0123347Y0248544D03*
X0128347Y0248544D03*
X0133347Y0248544D03*
X0138347Y0248544D03*
X0138347Y0253544D03*
X0133347Y0253544D03*
X0128347Y0253544D03*
X0123347Y0253544D03*
X0123347Y0258544D03*
X0128347Y0258544D03*
X0132847Y0265944D03*
X0143647Y0266144D03*
X0143647Y0280844D03*
X0133047Y0280844D03*
X0118347Y0298544D03*
X0108347Y0298544D03*
X0098347Y0298544D03*
X0078347Y0318544D03*
X0078347Y0323544D03*
X0083347Y0323544D03*
X0078347Y0328544D03*
X0073347Y0328544D03*
X0068347Y0328544D03*
X0063347Y0328544D03*
X0058347Y0328544D03*
X0058347Y0333544D03*
X0063347Y0333544D03*
X0063347Y0338544D03*
X0058347Y0338544D03*
X0058347Y0343544D03*
X0063347Y0343544D03*
X0063347Y0323544D03*
X0063347Y0318544D03*
X0058347Y0318544D03*
X0058347Y0323544D03*
X0068347Y0323544D03*
X0068347Y0318544D03*
X0073347Y0318544D03*
X0073347Y0323544D03*
X0063347Y0293544D03*
X0063347Y0288544D03*
X0058347Y0288544D03*
X0058347Y0293544D03*
X0053347Y0293544D03*
X0053347Y0288544D03*
X0098347Y0358544D03*
X0098347Y0363544D03*
X0098347Y0368544D03*
X0103347Y0368544D03*
X0103347Y0363544D03*
X0103347Y0358544D03*
X0108347Y0358544D03*
X0113347Y0358544D03*
X0118347Y0358544D03*
X0118347Y0363544D03*
X0113347Y0363544D03*
X0108347Y0363544D03*
X0108347Y0368544D03*
X0113347Y0368544D03*
X0118347Y0368544D03*
X0123347Y0368544D03*
X0123347Y0363544D03*
X0123347Y0358544D03*
X0128347Y0358544D03*
X0128347Y0363544D03*
X0128347Y0368544D03*
X0148347Y0328544D03*
X0148347Y0323544D03*
X0148347Y0318544D03*
X0148347Y0313544D03*
X0148347Y0308544D03*
X0202347Y0308244D03*
X0204547Y0304444D03*
X0206747Y0308144D03*
X0206847Y0312844D03*
X0202447Y0312944D03*
X0202547Y0317744D03*
X0238347Y0323544D03*
X0243347Y0323544D03*
X0243347Y0318544D03*
X0248347Y0318544D03*
X0248347Y0313544D03*
X0253347Y0318544D03*
X0248347Y0323544D03*
X0248347Y0328544D03*
X0243347Y0328544D03*
X0238347Y0328544D03*
X0238347Y0333544D03*
X0243347Y0333544D03*
X0253347Y0328544D03*
X0258347Y0328544D03*
X0256047Y0304344D03*
X0255947Y0293244D03*
X0241047Y0293344D03*
X0241047Y0304044D03*
X0284947Y0324144D03*
X0287047Y0320644D03*
X0289047Y0324144D03*
X0291147Y0320644D03*
X0293247Y0324144D03*
X0295347Y0320644D03*
X0297747Y0317044D03*
X0297747Y0312644D03*
X0292947Y0312544D03*
X0292947Y0316944D03*
X0307047Y0306244D03*
X0305147Y0302844D03*
X0305047Y0299044D03*
X0309047Y0302844D03*
X0310947Y0306244D03*
X0314847Y0306244D03*
X0312947Y0302844D03*
X0316747Y0302844D03*
X0314847Y0299044D03*
X0324947Y0297344D03*
X0326447Y0290244D03*
X0359447Y0297944D03*
X0359447Y0301744D03*
X0363347Y0301744D03*
X0363347Y0297944D03*
X0367247Y0297944D03*
X0367247Y0301744D03*
X0367247Y0305644D03*
X0363347Y0305644D03*
X0359447Y0305644D03*
X0359447Y0309644D03*
X0363347Y0309644D03*
X0367247Y0309644D03*
X0367247Y0313544D03*
X0363347Y0313544D03*
X0359447Y0313544D03*
X0393347Y0308544D03*
X0393347Y0318544D03*
X0393347Y0328544D03*
X0393347Y0338544D03*
X0393347Y0348544D03*
X0393347Y0358544D03*
X0361447Y0359744D03*
X0361447Y0363544D03*
X0361447Y0367444D03*
X0357347Y0367444D03*
X0357347Y0363544D03*
X0357347Y0359744D03*
X0353347Y0359744D03*
X0353347Y0363544D03*
X0349447Y0363544D03*
X0349447Y0359744D03*
X0345547Y0359744D03*
X0345547Y0363644D03*
X0345547Y0367444D03*
X0349447Y0367444D03*
X0353347Y0367444D03*
X0283347Y0358544D03*
X0278347Y0358544D03*
X0273347Y0358544D03*
X0268347Y0358544D03*
X0263347Y0358544D03*
X0263347Y0363544D03*
X0268347Y0363544D03*
X0273347Y0363544D03*
X0278347Y0363544D03*
X0258347Y0363544D03*
X0258347Y0358544D03*
X0253347Y0358544D03*
X0248347Y0358544D03*
X0248347Y0363544D03*
X0243347Y0363544D03*
X0253347Y0363544D03*
X0207447Y0376044D03*
X0204047Y0378544D03*
X0201047Y0376044D03*
X0203447Y0373044D03*
X0197847Y0373244D03*
X0194447Y0375944D03*
X0197947Y0378544D03*
X0198347Y0258544D03*
X0198347Y0253544D03*
X0203347Y0253544D03*
X0208347Y0253544D03*
X0213347Y0253544D03*
X0213347Y0258544D03*
X0208347Y0258544D03*
X0203347Y0258544D03*
X0193347Y0258544D03*
X0233347Y0228544D03*
X0233347Y0223544D03*
X0238347Y0223544D03*
X0243347Y0223544D03*
X0248347Y0223544D03*
X0253347Y0223544D03*
X0258347Y0223544D03*
X0258347Y0228544D03*
X0253347Y0228544D03*
X0248347Y0228544D03*
X0243347Y0228544D03*
X0238347Y0228544D03*
X0263347Y0228544D03*
X0263347Y0223544D03*
X0268347Y0223544D03*
X0278347Y0213544D03*
X0278347Y0208544D03*
X0278347Y0203544D03*
X0278347Y0198544D03*
X0283347Y0198544D03*
X0283347Y0203544D03*
X0283347Y0208544D03*
X0283347Y0213544D03*
X0305547Y0210344D03*
X0305547Y0205644D03*
X0305547Y0200644D03*
X0305647Y0195844D03*
X0310747Y0195844D03*
X0310747Y0200644D03*
X0310747Y0205644D03*
X0310747Y0210344D03*
X0315847Y0210244D03*
X0315847Y0205644D03*
X0315847Y0200644D03*
X0315947Y0195844D03*
X0315947Y0190544D03*
X0310747Y0190444D03*
X0305647Y0190544D03*
X0305647Y0185644D03*
X0305647Y0181144D03*
X0314647Y0181144D03*
X0314647Y0185644D03*
X0324647Y0186544D03*
X0329747Y0186544D03*
X0328347Y0233544D03*
X0323347Y0233544D03*
X0296447Y0247244D03*
X0298247Y0250444D03*
X0294547Y0250444D03*
X0292547Y0247344D03*
X0290747Y0250444D03*
X0294447Y0243944D03*
X0233347Y0193544D03*
X0250747Y0176244D03*
X0263347Y0168544D03*
X0268347Y0168544D03*
X0273347Y0168544D03*
X0278347Y0168544D03*
X0283347Y0168544D03*
X0278547Y0175844D03*
X0268347Y0175944D03*
X0268147Y0160944D03*
X0278547Y0161044D03*
X0258347Y0153544D03*
X0189447Y0134344D03*
X0186747Y0136844D03*
X0100547Y0113344D03*
X0099047Y0105544D03*
X0063347Y0092544D03*
X0063347Y0088544D03*
X0063347Y0084644D03*
X0059247Y0084644D03*
X0059247Y0088444D03*
X0059247Y0092544D03*
X0055047Y0088544D03*
X0059347Y0070544D03*
X0056147Y0068544D03*
X0059347Y0066544D03*
X0063247Y0066544D03*
X0063247Y0070444D03*
X0058347Y0038544D03*
X0028747Y0066344D03*
X0025147Y0066344D03*
X0025147Y0070944D03*
X0028747Y0070844D03*
X0020947Y0068444D03*
X0023947Y0084644D03*
X0023947Y0088544D03*
X0024047Y0092544D03*
X0028347Y0092544D03*
X0028347Y0088544D03*
X0028347Y0084644D03*
X0019847Y0088544D03*
X0025847Y0151644D03*
X0030847Y0153544D03*
X0088347Y0183544D03*
X0123747Y0026444D03*
X0393347Y0188544D03*
X0393347Y0198544D03*
X0393347Y0208544D03*
X0393347Y0218544D03*
X0393347Y0228544D03*
X0393347Y0238544D03*
X0393347Y0248544D03*
X0393347Y0258544D03*
X0393347Y0268544D03*
X0393347Y0278544D03*
X0393347Y0288544D03*
X0393347Y0298544D03*
M02*
