%
M48
M72
T01C0.01378
T02C0.01772
T03C0.03937
T04C0.04000
T05C0.05906
T06C0.06693
T07C0.09055
T08C0.11811
%
T01
X58347Y38544
X59347Y66544
X56147Y68544
X59347Y70544
X63247Y70444
X63247Y66544
X63347Y84644
X63347Y88544
X63347Y92544
X59247Y92544
X59247Y88444
X59247Y84644
X55047Y88544
X28747Y70844
X25147Y70944
X25147Y66344
X28747Y66344
X20947Y68444
X23947Y84644
X23947Y88544
X24047Y92544
X28347Y92544
X28347Y88544
X28347Y84644
X19847Y88544
X25847Y151644
X30847Y153544
X8347Y188544
X8347Y193544
X8347Y198544
X8347Y203544
X8347Y208544
X13347Y208544
X18347Y208544
X18347Y213544
X13347Y213544
X8347Y213544
X8347Y218544
X13347Y218544
X18347Y218544
X23347Y213544
X25947Y205644
X20847Y202344
X38347Y203544
X43147Y200044
X58347Y198944
X68347Y198544
X68347Y193544
X68347Y188544
X68347Y183544
X78347Y168544
X78347Y163544
X78347Y158544
X82547Y151644
X88347Y163544
X98547Y150244
X108247Y160744
X118447Y160944
X118347Y176144
X108247Y176144
X88347Y183544
X118347Y198544
X158347Y188544
X173347Y183544
X188147Y175944
X198647Y176044
X198647Y160844
X188147Y160844
X183347Y158544
X186747Y136844
X189447Y134344
X161947Y130644
X158347Y138544
X158347Y143544
X158347Y148544
X156647Y158144
X140847Y112144
X128347Y108544
X120847Y110344
X100547Y113344
X99047Y105544
X127047Y84344
X114247Y76044
X100247Y66044
X103147Y62544
X103147Y59444
X118347Y56844
X136347Y61144
X163147Y35844
X166247Y33244
X173347Y38544
X198347Y53544
X202347Y59844
X231347Y58244
X234847Y55144
X231347Y51944
X234947Y61444
X246247Y73444
X249947Y74844
X253347Y73644
X255847Y83444
X265847Y83444
X275847Y83544
X285847Y83744
X273347Y63544
X268347Y63544
X258347Y43544
X248347Y43544
X245547Y48544
X241947Y28744
X231947Y28044
X225647Y26544
X219347Y26844
X216247Y31444
X235147Y86044
X228847Y88744
X223447Y90044
X254347Y107344
X264247Y107344
X258347Y153544
X268147Y160944
X268347Y168544
X263347Y168544
X268347Y175944
X273347Y168544
X278347Y168544
X283347Y168544
X278547Y175844
X278547Y161044
X250747Y176244
X233347Y193544
X233347Y223544
X233347Y228544
X238347Y228544
X238347Y223544
X243347Y223544
X248347Y223544
X253347Y223544
X258347Y223544
X258347Y228544
X253347Y228544
X248347Y228544
X243347Y228544
X263347Y228544
X263347Y223544
X268347Y223544
X278347Y213544
X278347Y208544
X278347Y203544
X278347Y198544
X283347Y198544
X283347Y203544
X283347Y208544
X283347Y213544
X305547Y210344
X305547Y205644
X305547Y200644
X305647Y195844
X310747Y195844
X310747Y200644
X310747Y205644
X310747Y210344
X315847Y210244
X315847Y205644
X315847Y200644
X315947Y195844
X315947Y190544
X310747Y190444
X305647Y190544
X305647Y185644
X305647Y181144
X314647Y181144
X314647Y185644
X324647Y186544
X329747Y186544
X328347Y233544
X323347Y233544
X296447Y247244
X298247Y250444
X294547Y250444
X292547Y247344
X290747Y250444
X294447Y243944
X326447Y290244
X324947Y297344
X316747Y302844
X312947Y302844
X314847Y306244
X310947Y306244
X309047Y302844
X305147Y302844
X305047Y299044
X307047Y306244
X314847Y299044
X297747Y312644
X297747Y317044
X295347Y320644
X293247Y324144
X291147Y320644
X289047Y324144
X287047Y320644
X284947Y324144
X292947Y316944
X292947Y312544
X256047Y304344
X248347Y313544
X248347Y318544
X243347Y318544
X243347Y323544
X238347Y323544
X238347Y328544
X243347Y328544
X248347Y328544
X253347Y328544
X258347Y328544
X248347Y323544
X253347Y318544
X241047Y304044
X241047Y293344
X255947Y293244
X243347Y333544
X238347Y333544
X248347Y358544
X253347Y358544
X258347Y358544
X258347Y363544
X253347Y363544
X248347Y363544
X243347Y363544
X263347Y363544
X263347Y358544
X268347Y358544
X273347Y358544
X278347Y358544
X278347Y363544
X273347Y363544
X268347Y363544
X283347Y358544
X345547Y359744
X349447Y359744
X349447Y363544
X353347Y363544
X353347Y359744
X357347Y359744
X357347Y363544
X357347Y367444
X353347Y367444
X349447Y367444
X345547Y367444
X345547Y363644
X361447Y363544
X361447Y359744
X361447Y367444
X393347Y358544
X393347Y348544
X393347Y338544
X393347Y328544
X393347Y318544
X393347Y308544
X393347Y298544
X393347Y288544
X393347Y278544
X393347Y268544
X393347Y258544
X393347Y248544
X393347Y238544
X393347Y228544
X393347Y218544
X393347Y208544
X393347Y198544
X393347Y188544
X367247Y297944
X367247Y301744
X363347Y301744
X363347Y297944
X359447Y297944
X359447Y301744
X359447Y305644
X363347Y305644
X367247Y305644
X367247Y309644
X363347Y309644
X359447Y309644
X359447Y313544
X363347Y313544
X367247Y313544
X213347Y258544
X213347Y253544
X208347Y253544
X203347Y253544
X198347Y253544
X198347Y258544
X193347Y258544
X203347Y258544
X208347Y258544
X204547Y304444
X206747Y308144
X202347Y308244
X202447Y312944
X206847Y312844
X202547Y317744
X148347Y318544
X148347Y313544
X148347Y308544
X148347Y323544
X148347Y328544
X128347Y358544
X123347Y358544
X123347Y363544
X128347Y363544
X128347Y368544
X123347Y368544
X118347Y368544
X118347Y363544
X118347Y358544
X113347Y358544
X108347Y358544
X103347Y358544
X103347Y363544
X108347Y363544
X113347Y363544
X113347Y368544
X108347Y368544
X103347Y368544
X98347Y368544
X98347Y363544
X98347Y358544
X78347Y328544
X78347Y323544
X78347Y318544
X83347Y323544
X73347Y323544
X73347Y318544
X68347Y318544
X63347Y318544
X58347Y318544
X58347Y323544
X63347Y323544
X68347Y323544
X68347Y328544
X63347Y328544
X58347Y328544
X58347Y333544
X63347Y333544
X63347Y338544
X58347Y338544
X58347Y343544
X63347Y343544
X73347Y328544
X98347Y298544
X108347Y298544
X118347Y298544
X133047Y280844
X143647Y280844
X143647Y266144
X132847Y265944
X128347Y258544
X128347Y253544
X128347Y248544
X123347Y248544
X123347Y253544
X123347Y258544
X133347Y253544
X133347Y248544
X138347Y248544
X138347Y253544
X83947Y252844
X83947Y248644
X83947Y244344
X73347Y248544
X68347Y248544
X63347Y248544
X63347Y253544
X58347Y253544
X68347Y253544
X73347Y253544
X74747Y258844
X74747Y264344
X63347Y288544
X58347Y288544
X58347Y293544
X63347Y293544
X53347Y293544
X53347Y288544
X13347Y223544
X8347Y223544
X158747Y102344
X123747Y26444
X275747Y31644
X279547Y30944
X275847Y35844
X279647Y36544
X304447Y45544
X309547Y38544
X308347Y58544
X203447Y373044
X201047Y376044
X204047Y378544
X207447Y376044
X197947Y378544
X194447Y375944
X197847Y373244
T02
X198347Y363544
X198347Y358544
X193347Y358544
X193347Y363544
X188347Y363544
X188347Y358544
X183347Y358544
X193347Y318544
X193347Y313544
X193347Y308544
X188347Y308544
X183347Y308544
X188347Y313544
X268347Y253544
X273347Y248544
X268347Y243544
X273347Y238544
X278347Y243544
X278347Y253544
X273347Y258544
X228347Y198544
X228347Y193544
X223347Y193544
X223347Y198544
X208347Y198544
X208347Y193544
X233347Y158544
X238347Y158544
X238347Y153544
X238347Y133544
X243347Y128544
X200347Y155944
X197847Y152344
X168347Y129444
X58347Y148544
X58347Y153544
X53347Y153544
X33747Y169744
X9647Y153244
X28347Y138544
X23347Y128544
X18347Y118544
X206747Y18744
X212847Y18644
X310847Y82044
X320847Y82044
X319347Y108544
X303347Y128544
X298347Y128544
X303347Y133544
X333347Y133544
X338347Y133544
X343347Y133544
X343347Y138544
X338347Y138544
X343347Y143544
X348347Y143544
X348347Y138544
X348347Y148544
T03
X68347Y118544
X68347Y108544
X68347Y88544
X68347Y68544
X33347Y68544
X33347Y88544
X33347Y108544
X33347Y118544
T04
X98347Y43544
X98347Y33544
X108347Y33544
X118347Y33544
X118347Y43544
X108347Y43544
X128347Y43544
X128347Y33544
X138347Y33544
X138347Y43544
T05
X140237Y335946
X139154Y348544
X127540Y348544
X118485Y348544
X106871Y348544
X97816Y348544
X98898Y335946
X112678Y335946
X126458Y335946
X148210Y348544
X159824Y348544
X168879Y348544
X167796Y335946
X154017Y335946
X272816Y348544
X281871Y348544
X293485Y348544
X302540Y348544
X314154Y348544
X323210Y348544
X334824Y348544
X343879Y348544
X342796Y335946
X329017Y335946
X315237Y335946
X301458Y335946
X287678Y335946
X273898Y335946
T06
X295367Y303936
X295367Y289526
X295367Y271928
X295367Y257518
X363228Y238870
X363228Y224461
X363228Y206862
X363228Y192453
X381567Y174636
X381567Y160226
X381567Y142628
X381567Y128218
X210128Y321853
X210128Y336262
X210128Y353861
X210128Y368270
T07
X13347Y18544
X387048Y18544
X387048Y392245
X13347Y392245
T08
X78347Y343544
X188347Y343544
X253347Y343544
X363347Y343544
M30
